Coordinates
version=1
nRows=8
nColumns=63
inDegrees=yes

Units are S.I. units (second, meters, Newtons, ...)
If the header above contains a line with 'inDegrees', this indicates whether rotational values are in degrees (yes) or radians (no).

endheader
time	pelvis_tilt	pelvis_list	pelvis_rotation	pelvis_tx	pelvis_ty	pelvis_tz	hip_flexion_r	hip_adduction_r	hip_rotation_r	knee_angle_r	knee_angle_r_beta	ankle_angle_r	subtalar_angle_r	mtp_angle_r	hip_flexion_l	hip_adduction_l	hip_rotation_l	knee_angle_l	knee_angle_l_beta	ankle_angle_l	subtalar_angle_l	mtp_angle_l	L5_S1_Flex_Ext	L5_S1_Lat_Bending	L5_S1_axial_rotation	L4_L5_Flex_Ext	L4_L5_Lat_Bending	L4_L5_axial_rotation	L3_L4_Flex_Ext	L3_L4_Lat_Bending	L3_L4_axial_rotation	L2_L3_Flex_Ext	L2_L3_Lat_Bending	L2_L3_axial_rotation	L1_L2_Flex_Ext	L1_L2_Lat_Bending	L1_L2_axial_rotation	L1_T12_Flex_Ext	L1_T12_Lat_Bending	L1_T12_axial_rotation	Abs_r3	Abs_r2	Abs_r1	Abs_t1	Abs_t2	neck_flexion	neck_bending	neck_rotation	arm_flex_r	arm_add_r	arm_rot_r	elbow_flex_r	pro_sup_r	wrist_flex_r	wrist_dev_r	arm_flex_l	arm_add_l	arm_rot_l	elbow_flex_l	pro_sup_l	wrist_flex_l	wrist_dev_l
0.000000	3.039682	-5.325910	89.333220	0.230083	0.752432	0.746606	7.458168	2.643513	-18.858236	12.344911	0.215459	27.404440	18.434857	0.000000	1.676314	-3.720776	-1.264809	3.965413	0.069210	19.730127	-3.970485	0.000000	0.187947	0.363925	-0.528730	0.349036	0.484020	-0.561775	0.308777	0.884847	-0.561775	0.214804	0.884847	-0.462639	0.174527	0.742116	-0.429593	0.107393	0.563720	-0.396547	1.342484	4.116792	-2.940637	0.000000	0.000000	15.906292	-3.699770	-8.232006	7.638057	-30.393321	61.363249	95.250595	68.572689	4.025910	10.459156	10.899603	-21.460865	61.819530	90.428634	80.466783	5.868414	11.975715
0.016667	2.874124	-5.481328	89.153181	0.230959	0.752306	0.746783	7.599200	2.567928	-18.520688	12.238676	0.213605	27.458900	18.493392	0.000000	1.754120	-3.578510	-0.638987	3.808234	0.066466	19.190584	-4.709720	0.000000	0.193473	0.346510	-0.660685	0.359298	0.460859	-0.701978	0.317856	0.842505	-0.701978	0.221120	0.842505	-0.578100	0.179659	0.706604	-0.536807	0.110550	0.536745	-0.495514	1.381956	3.919795	-3.674534	0.000000	0.000000	15.927413	-3.305356	-7.196638	8.619008	-30.434290	62.914144	95.021200	66.360654	2.897505	9.567110	8.970791	-21.548022	59.220079	90.994905	81.142309	5.461368	12.176967
0.033333	2.710479	-5.598513	88.945441	0.231694	0.752247	0.746889	7.713323	2.474586	-18.214377	12.180892	0.212597	27.516560	18.540163	0.000000	1.800630	-3.429967	-0.258650	3.689066	0.064386	18.777493	-5.235008	0.000000	0.197805	0.328766	-0.746242	0.367344	0.437259	-0.792882	0.324974	0.799362	-0.792882	0.226072	0.799362	-0.652962	0.183682	0.670420	-0.606322	0.113026	0.509259	-0.559682	1.412902	3.719070	-4.150375	0.000000	0.000000	15.883700	-2.964726	-6.439243	9.286421	-30.463220	63.951945	94.866825	64.573254	2.145098	9.010568	7.490370	-21.614356	57.239459	91.387216	81.625706	5.224145	12.371259
0.050000	2.550500	-5.680669	88.717754	0.232297	0.752250	0.746921	7.800730	2.366989	-17.940970	12.165151	0.212322	27.575812	18.576026	0.000000	1.817668	-3.277709	-0.090698	3.603192	0.062888	18.476846	-5.571752	0.000000	0.201072	0.310961	-0.791204	0.373411	0.413578	-0.840654	0.330341	0.756069	-0.840654	0.229805	0.756069	-0.692303	0.186716	0.634111	-0.642853	0.114893	0.481678	-0.593403	1.436238	3.517648	-4.400438	0.000000	0.000000	15.784080	-2.674261	-5.929572	9.664107	-30.478089	64.517573	94.777765	63.175667	1.720198	8.753619	6.404835	-21.662997	55.806019	91.618804	81.922317	5.134011	12.548165
0.066667	2.395942	-5.731002	88.477876	0.232777	0.752305	0.746877	7.861619	2.248638	-17.702132	12.185045	0.212669	27.635048	18.601838	0.000000	1.807059	-3.124296	-0.102030	3.545897	0.061888	18.274634	-5.745350	0.000000	0.203401	0.293361	-0.801374	0.377737	0.390170	-0.851460	0.334168	0.713278	-0.851460	0.232467	0.713278	-0.701202	0.188879	0.598222	-0.651116	0.116224	0.454417	-0.601030	1.452876	3.318561	-4.457001	0.000000	0.000000	15.637479	-2.430339	-5.637377	9.775878	-30.476880	64.651947	94.744311	62.133075	1.574312	8.760352	5.660678	-21.697075	54.848108	91.702905	82.037488	5.168233	12.697260
0.083333	2.248562	-5.752715	88.233562	0.233144	0.752404	0.746752	7.896183	2.123036	-17.499530	12.234166	0.213526	27.692662	18.618457	0.000000	1.770627	-2.972289	-0.259544	3.512462	0.061304	18.156848	-5.781203	0.000000	0.204921	0.276236	-0.782556	0.380559	0.367394	-0.831465	0.336664	0.671641	-0.831465	0.234204	0.671641	-0.684736	0.190290	0.563301	-0.635826	0.117092	0.427890	-0.586917	1.463729	3.124840	-4.352339	0.000000	0.000000	15.452825	-2.229340	-5.532408	9.645547	-30.457571	64.395987	94.756758	61.410658	1.658952	8.994859	5.204392	-21.719719	54.294073	91.652755	81.976565	5.304077	12.808118
0.100000	2.110114	-5.749015	87.992568	0.233408	0.752541	0.746544	7.904617	1.993682	-17.334830	12.306106	0.214782	27.747045	18.626738	0.000000	1.710197	-2.824250	-0.530141	3.498171	0.061055	18.109479	-5.704712	0.000000	0.205758	0.259854	-0.740553	0.382114	0.345605	-0.786837	0.338041	0.631808	-0.786837	0.235161	0.631808	-0.647983	0.191067	0.529894	-0.601699	0.117570	0.402513	-0.555414	1.469712	2.939516	-4.118731	0.000000	0.000000	15.239044	-2.067645	-5.584418	9.296925	-30.418143	63.790614	94.805398	60.973595	1.925625	9.421227	4.982470	-21.734058	54.072264	91.481592	81.744892	5.518812	12.870314
0.116667	1.982353	-5.723105	87.762648	0.233578	0.752707	0.746251	7.887118	1.864079	-17.209699	12.394458	0.216324	27.796589	18.627537	0.000000	1.627593	-2.682740	-0.880720	3.498307	0.061057	18.118519	-5.541277	0.000000	0.206042	0.244481	-0.681168	0.382641	0.325160	-0.723741	0.338507	0.594432	-0.723741	0.235485	0.594432	-0.596022	0.191331	0.498546	-0.553449	0.117732	0.378702	-0.510876	1.471738	2.765622	-3.788454	0.000000	0.000000	15.005065	-1.941632	-5.763156	8.753825	-30.356577	62.876748	94.880526	60.787068	2.325842	10.003547	4.941406	-21.743224	54.111027	91.202651	81.347814	5.789703	12.873421
